<?xml version="1.0" encoding="utf-8"?>
<!-- Generator: Adobe Illustrator 16.0.0, SVG Export Plug-In . SVG Version: 6.00 Build 0)  -->
<!DOCTYPE svg PUBLIC "-//W3C//DTD SVG 1.1//EN" "http://www.w3.org/Graphics/SVG/1.1/DTD/svg11.dtd">
<svg version="1.1" id="Layer_1" xmlns="http://www.w3.org/2000/svg" xmlns:xlink="http://www.w3.org/1999/xlink" x="0px" y="0px"
	 width="1200px" height="1200px" viewBox="0 0 1200 1200" enable-background="new 0 0 1200 1200" xml:space="preserve">
<g>
	<path fill="#231F20" d="M206.42,608.217c-0.365-22.25,9.245-39.57,28.809-51.968c-11.033-16.043-27.305-25.062-48.821-27.077
		c-7.654-0.719-17.439,1.09-29.343,5.473c-12.805,4.747-20.013,7.107-21.611,7.107c-3.38,0-9.87-1.995-19.487-6.017
		c-9.596-4.011-17.783-6.016-24.543-6.016c-11.38,0.187-21.969,3.331-31.748,9.435c-9.782,6.111-17.604,14.459-23.47,25.023
		C28.727,577.311,25,592.993,25,611.223c0,16.407,2.749,32.813,8.26,49.231c5.158,15.683,11.749,29.446,19.743,41.288
		c7.107,10.76,13.355,18.6,18.674,23.527c7.657,7.654,15.472,11.309,23.487,10.938c5.154-0.189,11.907-2.102,20.269-5.758
		c7.819-3.446,15.651-5.183,23.48-5.183c7.289,0,14.841,1.727,22.678,5.183c8.709,3.656,15.83,5.477,21.341,5.477
		c8.184-0.356,15.827-3.916,22.951-10.654c2.479-2.197,5.196-5.202,8.127-9.031c3.384-4.459,6.633-9.021,9.744-13.674
		c2.591-4.014,5.039-8.119,7.338-12.307c2.466-4.511,4.649-9.17,6.536-13.951c0.88-2.006,1.679-4.053,2.398-6.148
		c0.708-2.098,1.42-4.232,2.132-6.424c-6.581-2.91-12.541-7.029-17.875-12.32C212.559,639.766,206.599,625.354,206.42,608.217
		L206.42,608.217z M399.875,656.973h-1.294l-54.179-123.813h-42.547v199.767h37.08v-129.38h1.722l45.278,102.736h26.005
		l45.134-102.736h1.729v129.379h37.509V533.158h-42.255L399.875,656.973z M172.796,507.023
		c9.433-11.854,14.147-24.616,14.147-38.293v-2.731c0-0.918-0.092-1.827-0.268-2.738c-6.584,0.364-13.562,2.464-20.949,6.286
		c-7.375,3.835-13.467,8.674-18.276,14.498c-9.601,11.497-14.407,23.796-14.407,36.926v2.591c0,0.827,0.091,1.69,0.266,2.608
		C148.078,527.625,161.24,521.241,172.796,507.023z M929.692,533.158h41.677v199.771h-41.677V533.158z M1097.245,564.913
		c24.718,0,37.789,19.028,37.789,39.517H1175v-4.246c0-38.634-29.465-70.827-78.046-70.827c-52.03,0-83.07,34.244-83.07,92.642
		v22.541c0,58.38,30.753,92.199,82.923,92.199c49.875,0,78.193-32.648,78.193-68.938v-4.39h-39.963
		c0,20.645-12.786,37.764-37.498,37.764c-25.303,0-41.402-18.003-41.402-56.5v-22.523
		C1056.137,583.79,1072.384,564.913,1097.245,564.913L1097.245,564.913z M655.712,659.309c0,26.789-15.665,41.563-38.658,41.563
		c-23.14,0-38.802-14.634-38.802-41.563v-126.15h-41.396v132.005c0,42.599,30.177,71.573,80.191,71.573
		c49.874,0,80.194-28.976,80.194-71.573V533.158h-41.529L655.712,659.309L655.712,659.309z M835.133,616.579l-29.745-6.726
		c-17.53-3.672-26.729-11.422-26.729-22.989c0-15.36,12.499-25.023,32.631-25.023c22.705,0,34.058,13.025,35.061,27.078h38.807
		c-0.432-35.275-29.891-59.859-73.729-59.859c-41.529,0-74.301,21.811-74.301,61.03c0,33.953,23,49.748,50.593,55.766l29.458,6.871
		c19.834,4.537,29.894,11.129,29.894,24.729c0,15.524-12.362,26.063-35.495,26.063c-24.865,0-37.946-13.176-39.09-27.961h-39.959
		c0.586,28.248,19.267,61.179,77.043,61.179c48.573,0,78.616-24.146,78.616-63.384C888.17,637.059,863.88,622.861,835.133,616.579
		L835.133,616.579z"/>
</g>
</svg>
