<?xml version="1.0" encoding="iso-8859-1"?>
<!-- Generator: Adobe Illustrator 19.0.0, SVG Export Plug-In . SVG Version: 6.00 Build 0)  -->
<svg version="1.1" id="Layer_1" xmlns="http://www.w3.org/2000/svg" xmlns:xlink="http://www.w3.org/1999/xlink" x="0px" y="0px"
	 viewBox="0 0 512 512" style="enable-background:new 0 0 512 512;" xml:space="preserve">
<path style="fill:#FFDA71;" d="M256,480c123.52,0,224-100.48,224-224S379.52,32,256,32S32,132.48,32,256S132.48,480,256,480z
	 M347.264,138.608c24.608,0,44.56,19.952,44.56,44.56s-19.952,44.56-44.56,44.56s-44.56-19.952-44.56-44.56
	C302.72,158.544,322.656,138.608,347.264,138.608z M368.112,314.432l19.12,25.664C343.68,372.576,300,383.408,261.12,383.408
	c-77.2,0-135.52-42.688-136.384-43.328l19.152-25.648C148.48,317.84,257.504,396.944,368.112,314.432z M164.736,138.608
	c24.608,0,44.56,19.952,44.56,44.56s-19.952,44.56-44.56,44.56s-44.56-19.952-44.56-44.56
	C120.176,158.544,140.128,138.608,164.736,138.608z"/>
<g>
	<path style="fill:#333333;" d="M256,512c141.392,0,256-114.608,256-256S397.392,0,256,0S0,114.608,0,256S114.608,512,256,512z
		 M256,32c123.52,0,224,100.48,224,224S379.52,480,256,480S32,379.52,32,256S132.48,32,256,32z"/>
	<circle style="fill:#333333;" cx="164.736" cy="183.152" r="44.56"/>
	<circle style="fill:#333333;" cx="347.264" cy="183.152" r="44.56"/>
	<path style="fill:#333333;" d="M124.736,340.08c0.88,0.64,59.184,43.328,136.384,43.328c38.88,0,82.56-10.832,126.112-43.312
		l-19.12-25.664c-110.608,82.496-219.632,3.408-224.224,0L124.736,340.08z"/>
</g>
<g>
</g>
<g>
</g>
<g>
</g>
<g>
</g>
<g>
</g>
<g>
</g>
<g>
</g>
<g>
</g>
<g>
</g>
<g>
</g>
<g>
</g>
<g>
</g>
<g>
</g>
<g>
</g>
<g>
</g>
</svg>
