<?xml version="1.0" encoding="iso-8859-1"?>
<!-- Generator: Adobe Illustrator 19.0.0, SVG Export Plug-In . SVG Version: 6.00 Build 0)  -->
<svg version="1.1" id="Layer_1" xmlns="http://www.w3.org/2000/svg" xmlns:xlink="http://www.w3.org/1999/xlink" x="0px" y="0px"
	 viewBox="0 0 512 512" style="enable-background:new 0 0 512 512;" xml:space="preserve">
<path style="fill:#FFDA71;" d="M256,480c123.52,0,224-100.48,224-224S379.52,32,256,32S32,132.48,32,256S132.48,480,256,480z
	 M347.264,138.608c24.608,0,44.56,19.952,44.56,44.56s-19.952,44.56-44.56,44.56s-44.56-19.952-44.56-44.56
	C302.72,158.544,322.656,138.608,347.264,138.608z M387.248,354.848l-19.12,25.664c-110.544-82.448-219.632-3.408-224.224,0
	l-19.152-25.648C126.064,353.888,257.248,257.872,387.248,354.848z M164.736,138.608c24.608,0,44.56,19.952,44.56,44.56
	s-19.952,44.56-44.56,44.56s-44.56-19.952-44.56-44.56C120.176,158.544,140.128,138.608,164.736,138.608z"/>
<g>
	<path style="fill:#333333;" d="M256,512c141.392,0,256-114.608,256-256S397.392,0,256,0S0,114.608,0,256S114.608,512,256,512z
		 M256,32c123.52,0,224,100.48,224,224S379.52,480,256,480S32,379.52,32,256S132.48,32,256,32z"/>
	<circle style="fill:#333333;" cx="164.736" cy="183.152" r="44.56"/>
	<circle style="fill:#333333;" cx="347.264" cy="183.152" r="44.56"/>
	<path style="fill:#333333;" d="M143.904,380.496c4.592-3.408,113.664-82.448,224.224,0l19.12-25.664
		c-130-96.976-261.184-0.96-262.496,0.016L143.904,380.496z"/>
</g>
<g>
</g>
<g>
</g>
<g>
</g>
<g>
</g>
<g>
</g>
<g>
</g>
<g>
</g>
<g>
</g>
<g>
</g>
<g>
</g>
<g>
</g>
<g>
</g>
<g>
</g>
<g>
</g>
<g>
</g>
</svg>
