<svg version="1.1"
      xmlns="http://www.w3.org/2000/svg"
      xmlns:xlink="http://www.w3.org/1999/xlink"  id="snapshot-73377" width="169.04" height="100" viewBox="0 0 169.04 100"><desc>This image was made on Patterninja.com</desc><defs>
<!-- image 40926 -->
<g id="transformed-40926" data-image="40926" transform="translate(-24.09759271648016, -24.181990895600205) rotate(11, 24.09759271648016, 30.121990895600206)"><g><svg version="1.1" width="48.19518543296032px" height="60.24398179120041px" viewBox="0 0 48.19518543296032 60.24398179120041"><g id="original-40926"><svg xmlns="http://www.w3.org/2000/svg" viewBox="0 0 58 72" xmlns:xlink="http://www.w3.org/1999/xlink" version="1.1" preserveAspectRatio="xMidYMid meet">
  <path fill-rule="evenodd" d="M58 12.5v38.541c0 4.285-4.925 8.63-11 9.707s-11-1.524-11-5.809 4.925-8.63 11-9.707c1.8-.319 3.5-.315 5-.04V20L22 30v32.041c0 4.285-4.925 8.63-11 9.707S0 70.224 0 65.939s4.925-8.63 11-9.707c1.8-.319 3.5-.315 5-.04V14L58 0v12.5zM22 15L52 5v4L22 19v-4zm0 7l30-10v4L22 26v-4z" fill="rgba(251, 187, 75, 0.35)" stroke="none"/>
</svg>
</g></svg></g></g>
<!-- /image 40926 -->
</defs><rect x="0" y="0" width="169.04" height="100" fill="rgba(231, 231, 231, 1)"></rect><use xlink:href="#transformed-40926" transform="translate(-169.04, -100)"></use><use xlink:href="#transformed-40926" transform="translate(0, -100)"></use><use xlink:href="#transformed-40926" transform="translate(169.04, -100)"></use><use xlink:href="#transformed-40926" transform="translate(-169.04, 0)"></use><use xlink:href="#transformed-40926" transform="translate(0, 0)"></use><use xlink:href="#transformed-40926" transform="translate(169.04, 0)"></use><use xlink:href="#transformed-40926" transform="translate(-169.04, 100)"></use><use xlink:href="#transformed-40926" transform="translate(0, 100)"></use><use xlink:href="#transformed-40926" transform="translate(169.04, 100)"></use></svg>